<svg width="1440" height="378" viewBox="0 0 1440 378" fill="none" xmlns="http://www.w3.org/2000/svg">
<path d="M1420.43 359.113C821.998 338.798 192.916 349.138 -46.8211 356.847L-54.645 485.997L1422.31 471.097C1671.03 442.234 2018.85 379.428 1420.43 359.113Z" fill="#FBCB84"/>
<path d="M64.9872 310.56C68.2355 310.347 67.6039 302.645 66.882 298.821L58.7614 297.22C57.8591 299.532 55.7839 304.797 54.7011 307.359C53.3477 310.56 60.927 310.827 64.9872 310.56Z" fill="#492E0D"/>
<path d="M64.9872 310.56C68.2355 310.347 67.6039 302.645 66.882 298.821L58.7614 297.22C57.8591 299.532 55.7839 304.797 54.7011 307.359C53.3477 310.56 60.927 310.827 64.9872 310.56Z" fill="#492E0D"/>
<path d="M64.9872 310.56C68.2355 310.347 67.6039 302.645 66.882 298.821L58.7614 297.22C57.8591 299.532 55.7839 304.797 54.7011 307.359C53.3477 310.56 60.927 310.827 64.9872 310.56Z" fill="#492E0D"/>
<path d="M64.9872 310.56C68.2355 310.347 67.6039 302.645 66.882 298.821L58.7614 297.22C57.8591 299.532 55.7839 304.797 54.7011 307.359C53.3477 310.56 60.927 310.827 64.9872 310.56Z" fill="#492E0D"/>
<path d="M63.5194 319.164C66.74 318.691 65.4913 311.064 64.4644 307.31L56.2413 306.368C55.5279 308.745 53.8826 314.16 53.0093 316.8C51.9176 320.1 59.4938 319.757 63.5194 319.164Z" fill="#492E0D"/>
<path d="M63.5194 319.164C66.74 318.691 65.4913 311.064 64.4644 307.31L56.2413 306.368C55.5279 308.745 53.8826 314.16 53.0093 316.8C51.9176 320.1 59.4938 319.757 63.5194 319.164Z" fill="#492E0D"/>
<path d="M63.5194 319.164C66.74 318.691 65.4913 311.064 64.4644 307.31L56.2413 306.368C55.5279 308.745 53.8826 314.16 53.0093 316.8C51.9176 320.1 59.4938 319.757 63.5194 319.164Z" fill="#492E0D"/>
<path d="M63.5194 319.164C66.74 318.691 65.4913 311.064 64.4644 307.31L56.2413 306.368C55.5279 308.745 53.8826 314.16 53.0093 316.8C51.9176 320.1 59.4938 319.757 63.5194 319.164Z" fill="#492E0D"/>
<path d="M62.2038 329.251C65.8151 328.72 64.4149 320.169 63.2634 315.959L54.0427 314.902C53.2427 317.568 51.3978 323.64 50.4185 326.6C49.1944 330.301 57.6897 329.916 62.2038 329.251Z" fill="#492E0D"/>
<path d="M62.2038 329.251C65.8151 328.72 64.4149 320.169 63.2634 315.959L54.0427 314.902C53.2427 317.568 51.3978 323.64 50.4185 326.6C49.1944 330.301 57.6897 329.916 62.2038 329.251Z" fill="#492E0D"/>
<path d="M62.2038 329.251C65.8151 328.72 64.4149 320.169 63.2634 315.959L54.0427 314.902C53.2427 317.568 51.3978 323.64 50.4185 326.6C49.1944 330.301 57.6897 329.916 62.2038 329.251Z" fill="#492E0D"/>
<path d="M62.2038 329.251C65.8151 328.72 64.4149 320.169 63.2634 315.959L54.0427 314.902C53.2427 317.568 51.3978 323.64 50.4185 326.6C49.1944 330.301 57.6897 329.916 62.2038 329.251Z" fill="#492E0D"/>
<path d="M61.0298 340.173C64.8754 339.607 63.3843 330.501 62.1581 326.019L52.3391 324.893C51.4872 327.731 49.5226 334.197 48.4797 337.35C47.1762 341.291 56.2228 340.881 61.0298 340.173Z" fill="#492E0D"/>
<path d="M61.0298 340.173C64.8754 339.607 63.3843 330.501 62.1581 326.019L52.3391 324.893C51.4872 327.731 49.5226 334.197 48.4797 337.35C47.1762 341.291 56.2228 340.881 61.0298 340.173Z" fill="#492E0D"/>
<path d="M61.0298 340.173C64.8754 339.607 63.3843 330.501 62.1581 326.019L52.3391 324.893C51.4872 327.731 49.5226 334.197 48.4797 337.35C47.1762 341.291 56.2228 340.881 61.0298 340.173Z" fill="#492E0D"/>
<path d="M61.0298 340.173C64.8754 339.607 63.3843 330.501 62.1581 326.019L52.3391 324.893C51.4872 327.731 49.5226 334.197 48.4797 337.35C47.1762 341.291 56.2228 340.881 61.0298 340.173Z" fill="#492E0D"/>
<path d="M60.0505 353.738C64.5238 353.079 62.7894 342.487 61.363 337.272L49.9413 335.963C48.9503 339.265 46.665 346.786 45.452 350.453C43.9357 355.037 54.4589 354.56 60.0505 353.738Z" fill="#492E0D"/>
<path d="M60.0505 353.738C64.5238 353.079 62.7894 342.487 61.363 337.272L49.9413 335.963C48.9503 339.265 46.665 346.786 45.452 350.453C43.9357 355.037 54.4589 354.56 60.0505 353.738Z" fill="#492E0D"/>
<path d="M60.0505 353.738C64.5238 353.079 62.7894 342.487 61.363 337.272L49.9413 335.963C48.9503 339.265 46.665 346.786 45.452 350.453C43.9357 355.037 54.4589 354.56 60.0505 353.738Z" fill="#492E0D"/>
<path d="M60.0505 353.738C64.5238 353.079 62.7894 342.487 61.363 337.272L49.9413 335.963C48.9503 339.265 46.665 346.786 45.452 350.453C43.9357 355.037 54.4589 354.56 60.0505 353.738Z" fill="#492E0D"/>
<path d="M59.8113 367.237C64.5552 366.113 61.7068 354.896 59.6896 349.428L47.2986 349.083C46.5413 352.723 44.786 361.015 43.8241 365.067C42.6217 370.132 53.8813 368.641 59.8113 367.237Z" fill="#492E0D"/>
<path d="M59.8113 367.237C64.5552 366.113 61.7068 354.896 59.6896 349.428L47.2986 349.083C46.5413 352.723 44.786 361.015 43.8241 365.067C42.6217 370.132 53.8813 368.641 59.8113 367.237Z" fill="#492E0D"/>
<path d="M59.8113 367.237C64.5552 366.113 61.7068 354.896 59.6896 349.428L47.2986 349.083C46.5413 352.723 44.786 361.015 43.8241 365.067C42.6217 370.132 53.8813 368.641 59.8113 367.237Z" fill="#492E0D"/>
<path d="M59.8113 367.237C64.5552 366.113 61.7068 354.896 59.6896 349.428L47.2986 349.083C46.5413 352.723 44.786 361.015 43.8241 365.067C42.6217 370.132 53.8813 368.641 59.8113 367.237Z" fill="#492E0D"/>
<path d="M60.8549 383.351C66.1417 381.738 62.1113 369.251 59.4353 363.21L45.3907 363.712C44.7957 367.884 43.4066 377.392 42.6099 382.046C41.614 387.864 54.2465 385.366 60.8549 383.351Z" fill="#492E0D"/>
<path d="M60.8549 383.351C66.1417 381.738 62.1113 369.251 59.4353 363.21L45.3907 363.712C44.7957 367.884 43.4066 377.392 42.6099 382.046C41.614 387.864 54.2465 385.366 60.8549 383.351Z" fill="#492E0D"/>
<path d="M60.8549 383.351C66.1417 381.738 62.1113 369.251 59.4353 363.21L45.3907 363.712C44.7957 367.884 43.4066 377.392 42.6099 382.046C41.614 387.864 54.2465 385.366 60.8549 383.351Z" fill="#492E0D"/>
<path d="M60.8549 383.351C66.1417 381.738 62.1113 369.251 59.4353 363.21L45.3907 363.712C44.7957 367.884 43.4066 377.392 42.6099 382.046C41.614 387.864 54.2465 385.366 60.8549 383.351Z" fill="#492E0D"/>
<path d="M61.1727 399.758C66.6893 398.075 62.4837 385.046 59.6914 378.741L45.0362 379.265C44.4154 383.619 42.9659 393.54 42.1346 398.397C41.0954 404.467 54.277 401.861 61.1727 399.758Z" fill="#492E0D"/>
<path d="M61.1727 399.758C66.6893 398.075 62.4837 385.046 59.6914 378.741L45.0362 379.265C44.4154 383.619 42.9659 393.54 42.1346 398.397C41.0954 404.467 54.277 401.861 61.1727 399.758Z" fill="#492E0D"/>
<path d="M61.1727 399.758C66.6893 398.075 62.4837 385.046 59.6914 378.741L45.0362 379.265C44.4154 383.619 42.9659 393.54 42.1346 398.397C41.0954 404.467 54.277 401.861 61.1727 399.758Z" fill="#492E0D"/>
<path d="M61.1727 399.758C66.6893 398.075 62.4837 385.046 59.6914 378.741L45.0362 379.265C44.4154 383.619 42.9659 393.54 42.1346 398.397C41.0954 404.467 54.277 401.861 61.1727 399.758Z" fill="#492E0D"/>
<path d="M62.2325 418.556C68.0716 416.776 63.6202 402.984 60.6646 396.311L45.1528 396.866C44.4957 401.474 42.9615 411.975 42.0815 417.116C40.9816 423.541 54.9337 420.782 62.2325 418.556Z" fill="#492E0D"/>
<path d="M62.2325 418.556C68.0716 416.776 63.6202 402.984 60.6646 396.311L45.1528 396.866C44.4957 401.474 42.9615 411.975 42.0815 417.116C40.9816 423.541 54.9337 420.782 62.2325 418.556Z" fill="#492E0D"/>
<path d="M62.2325 418.556C68.0716 416.776 63.6202 402.984 60.6646 396.311L45.1528 396.866C44.4957 401.474 42.9615 411.975 42.0815 417.116C40.9816 423.541 54.9337 420.782 62.2325 418.556Z" fill="#492E0D"/>
<path d="M62.2325 418.556C68.0716 416.776 63.6202 402.984 60.6646 396.311L45.1528 396.866C44.4957 401.474 42.9615 411.975 42.0815 417.116C40.9816 423.541 54.9337 420.782 62.2325 418.556Z" fill="#492E0D"/>
<path d="M61.7522 438.666C68.51 437.371 65.1764 421.38 62.6648 413.547L45.2135 412.307C43.9239 417.392 40.9441 428.978 39.341 434.633C37.3371 441.702 53.3049 440.285 61.7522 438.666Z" fill="#492E0D"/>
<path d="M61.7522 438.666C68.51 437.371 65.1764 421.38 62.6648 413.547L45.2135 412.307C43.9239 417.392 40.9441 428.978 39.341 434.633C37.3371 441.702 53.3049 440.285 61.7522 438.666Z" fill="#492E0D"/>
<path d="M61.7522 438.666C68.51 437.371 65.1764 421.38 62.6648 413.547L45.2135 412.307C43.9239 417.392 40.9441 428.978 39.341 434.633C37.3371 441.702 53.3049 440.285 61.7522 438.666Z" fill="#492E0D"/>
<path d="M61.7522 438.666C68.51 437.371 65.1764 421.38 62.6648 413.547L45.2135 412.307C43.9239 417.392 40.9441 428.978 39.341 434.633C37.3371 441.702 53.3049 440.285 61.7522 438.666Z" fill="#492E0D"/>
<path d="M73.9243 311.555C73.3279 311.555 68.8715 303.935 66.7179 300.124C55.8669 297.805 42.1167 288.147 73.9243 268.068C105.732 247.99 133.895 267.986 144 280.493C134.259 271.349 116.914 270.885 109.459 271.796C109.658 272.193 109.708 272.955 109.708 273.287C99.569 271.895 94.3837 274.198 93.0584 275.523C91.468 278.704 93.0584 279.499 94.0524 279.499C102.601 279.102 112.358 285.297 116.169 288.445C115.572 288.246 115.092 288.859 114.926 289.191C127.649 297.938 132.818 307.745 133.812 311.555H132.569C136.347 321.495 134.143 328.784 132.569 331.186C131.973 323.632 125.694 314.951 122.629 311.555C123.027 312.35 122.464 314.04 122.132 314.786C122.132 313.195 111.696 303.686 106.477 299.13C106.875 300.522 106.643 302.03 106.477 302.609C94.5494 293.663 89.5795 292.587 88.5855 293.166C89.1819 293.365 89.6623 295.072 89.828 295.9C88.4364 295.701 87.9229 296.48 87.84 296.894C96.5871 303.057 99.4365 317.353 99.7678 323.731H98.7738C100.563 340.033 93.8868 353.054 90.325 357.527C93.5057 345.997 92.313 335.162 91.319 331.186C90.325 330.988 89.4139 333.257 89.0826 334.417C89.2814 329.248 85.0238 320.17 82.8701 316.277C83.0358 317.768 83.1186 320.7 82.1246 320.501C81.1307 320.302 76.7406 311.141 74.6698 306.585C74.6698 308.242 74.5207 311.555 73.9243 311.555Z" fill="#214325"/>
<path d="M50.8017 305.154C51.3652 305.249 67.6048 294.913 70.1891 291.996C80.7762 291.74 95.1609 285.667 68.0031 263.424C40.8453 241.18 11.352 253.801 9.15527e-05 262.892C10.5227 256.62 26.9781 258.986 33.8904 260.953C33.6452 261.261 33.4884 261.905 33.4406 262.189C43.2208 262.613 47.788 265.409 48.8491 266.754C49.8931 269.728 48.2757 270.155 47.3365 269.997C39.3171 268.295 29.204 272.042 25.15 274.128C25.7421 274.053 26.1077 274.654 26.2164 274.964C12.9337 280.421 6.63564 287.988 5.14697 291.089L6.32085 291.287C1.31856 299.189 2.34917 305.776 3.48976 308.082C5.1427 301.714 12.3271 295.288 15.7126 292.87C15.2223 293.487 15.5108 295.023 15.7163 295.713C15.9457 294.352 27.1782 287.879 32.7658 284.813C32.1895 285.94 32.1912 287.267 32.2641 287.789C44.8242 282.036 38.7454 286.432 39.6009 287.087C39.0088 287.162 38.3087 288.545 38.0328 289.227C39.3763 289.279 39.7492 290.027 39.7677 290.394C30.6143 294.274 25.8603 306.051 24.6274 311.455L25.5666 311.613C21.5252 325.274 25.9554 337.478 28.6757 341.872C27.3332 331.501 30.0227 322.422 31.5352 319.178C32.503 319.167 33.0366 321.253 33.1824 322.298C33.74 317.845 39.072 310.756 41.6683 307.768C41.2967 309.018 40.7956 311.513 41.7634 311.501C42.7313 311.489 48.2004 304.351 50.814 300.783C50.5751 302.201 50.2382 305.059 50.8017 305.154Z" fill="#214325"/>
<path d="M1406.35 423.939L1101.78 155.535L1092.09 173.701L1000.83 426.276L1406.35 423.939Z" fill="url(#paint0_linear_6_194)"/>
<path d="M998.318 425.318L882.62 355.258L1101.78 155.535L998.318 425.318Z" fill="url(#paint1_linear_6_194)"/>
<mask id="mask0_6_194" style="mask-type:alpha" maskUnits="userSpaceOnUse" x="1000" y="155" width="407" height="272">
<path d="M1406.35 423.939L1101.78 155.535L1092.09 173.701L1000.83 426.276L1406.35 423.939Z" fill="url(#paint2_linear_6_194)"/>
</mask>
<g mask="url(#mask0_6_194)">
<g filter="url(#filter0_f_6_194)">
<path d="M1235.9 428.313L808.89 15.953L793.847 43.2105L599.992 439.035L1235.9 428.313Z" fill="black" fill-opacity="0.24"/>
</g>
</g>
<mask id="mask1_6_194" style="mask-type:alpha" maskUnits="userSpaceOnUse" x="882" y="155" width="220" height="271">
<path d="M998.318 425.318L882.62 355.258L1101.78 155.535L998.318 425.318Z" fill="url(#paint3_linear_6_194)"/>
</mask>
<g mask="url(#mask1_6_194)">
<g filter="url(#filter1_f_6_194)">
<path d="M1235.9 428.313L808.89 15.953L793.847 43.2105L599.992 439.035L1235.9 428.313Z" fill="black" fill-opacity="0.24"/>
</g>
</g>
<path d="M1185.91 429.156L758.897 16.7959L743.854 44.0533L549.999 439.877L1185.91 429.156Z" fill="url(#paint4_linear_6_194)"/>
<mask id="mask2_6_194" style="mask-type:alpha" maskUnits="userSpaceOnUse" x="549" y="16" width="637" height="424">
<path d="M1185.91 429.156L758.897 16.7959L743.854 44.0533L549.999 439.877L1185.91 429.156Z" fill="url(#paint5_linear_6_194)"/>
</mask>
<g mask="url(#mask2_6_194)">
<g filter="url(#filter2_f_6_194)">
<path d="M728.407 432.869L366.066 89.4283L349.414 110.212L153.988 442.554L728.407 432.869Z" fill="black" fill-opacity="0.36"/>
<path d="M164.495 442.877L67.5621 418.007L366.066 89.4283L164.495 442.877Z" fill="black" fill-opacity="0.36"/>
</g>
</g>
<path d="M575.779 396.937L449.904 346.052L758.897 16.7959L575.779 396.937Z" fill="url(#paint6_linear_6_194)"/>
<mask id="mask3_6_194" style="mask-type:alpha" maskUnits="userSpaceOnUse" x="449" y="16" width="310" height="381">
<path d="M575.779 396.937L449.904 346.052L758.897 16.7959L575.779 396.937Z" fill="url(#paint7_linear_6_194)"/>
</mask>
<g mask="url(#mask3_6_194)">
<g filter="url(#filter3_f_6_194)">
<path d="M728.407 432.869L366.066 89.4284L349.414 110.212L153.988 442.554L728.407 432.869Z" fill="black" fill-opacity="0.36"/>
<path d="M164.495 442.877L67.5623 418.007L366.066 89.4284L164.495 442.877Z" fill="black" fill-opacity="0.36"/>
</g>
</g>
<path d="M699.579 443.356L337.238 99.9158L320.586 120.699L125.161 453.041L699.579 443.356Z" fill="url(#paint8_linear_6_194)"/>
<path d="M135.668 453.364L38.7349 428.494L337.238 99.9158L135.668 453.364Z" fill="url(#paint9_linear_6_194)"/>
<path d="M167.861 224.854C173.252 224.5 172.203 211.716 171.005 205.369L157.527 202.712C156.03 206.55 152.586 215.289 150.789 219.54C148.542 224.854 161.122 225.297 167.861 224.854Z" fill="#492E0D"/>
<path d="M167.861 224.854C173.252 224.5 172.203 211.716 171.005 205.369L157.527 202.712C156.03 206.55 152.586 215.289 150.789 219.54C148.542 224.854 161.122 225.297 167.861 224.854Z" fill="#492E0D"/>
<path d="M167.861 224.854C173.252 224.5 172.203 211.716 171.005 205.369L157.527 202.712C156.03 206.55 152.586 215.289 150.789 219.54C148.542 224.854 161.122 225.297 167.861 224.854Z" fill="#492E0D"/>
<path d="M167.861 224.854C173.252 224.5 172.203 211.716 171.005 205.369L157.527 202.712C156.03 206.55 152.586 215.289 150.789 219.54C148.542 224.854 161.122 225.297 167.861 224.854Z" fill="#492E0D"/>
<path d="M165.424 239.134C170.77 238.348 168.697 225.69 166.993 219.46L153.345 217.895C152.161 221.841 149.43 230.828 147.98 235.21C146.169 240.687 158.743 240.117 165.424 239.134Z" fill="#492E0D"/>
<path d="M165.424 239.134C170.77 238.348 168.697 225.69 166.993 219.46L153.345 217.895C152.161 221.841 149.43 230.828 147.98 235.21C146.169 240.687 158.743 240.117 165.424 239.134Z" fill="#492E0D"/>
<path d="M165.424 239.134C170.77 238.348 168.697 225.69 166.993 219.46L153.345 217.895C152.161 221.841 149.43 230.828 147.98 235.21C146.169 240.687 158.743 240.117 165.424 239.134Z" fill="#492E0D"/>
<path d="M165.424 239.134C170.77 238.348 168.697 225.69 166.993 219.46L153.345 217.895C152.161 221.841 149.43 230.828 147.98 235.21C146.169 240.687 158.743 240.117 165.424 239.134Z" fill="#492E0D"/>
<path d="M163.241 255.876C169.235 254.994 166.911 240.801 164.999 233.814L149.696 232.06C148.368 236.484 145.306 246.562 143.681 251.475C141.649 257.617 155.749 256.978 163.241 255.876Z" fill="#492E0D"/>
<path d="M163.241 255.876C169.235 254.994 166.911 240.801 164.999 233.814L149.696 232.06C148.368 236.484 145.306 246.562 143.681 251.475C141.649 257.617 155.749 256.978 163.241 255.876Z" fill="#492E0D"/>
<path d="M163.241 255.876C169.235 254.994 166.911 240.801 164.999 233.814L149.696 232.06C148.368 236.484 145.306 246.562 143.681 251.475C141.649 257.617 155.749 256.978 163.241 255.876Z" fill="#492E0D"/>
<path d="M163.241 255.876C169.235 254.994 166.911 240.801 164.999 233.814L149.696 232.06C148.368 236.484 145.306 246.562 143.681 251.475C141.649 257.617 155.749 256.978 163.241 255.876Z" fill="#492E0D"/>
<path d="M161.292 274.003C167.675 273.064 165.2 257.95 163.165 250.51L146.868 248.642C145.454 253.353 142.194 264.085 140.463 269.317C138.299 275.857 153.314 275.177 161.292 274.003Z" fill="#492E0D"/>
<path d="M161.292 274.003C167.675 273.064 165.2 257.95 163.165 250.51L146.868 248.642C145.454 253.353 142.194 264.085 140.463 269.317C138.299 275.857 153.314 275.177 161.292 274.003Z" fill="#492E0D"/>
<path d="M161.292 274.003C167.675 273.064 165.2 257.95 163.165 250.51L146.868 248.642C145.454 253.353 142.194 264.085 140.463 269.317C138.299 275.857 153.314 275.177 161.292 274.003Z" fill="#492E0D"/>
<path d="M161.292 274.003C167.675 273.064 165.2 257.95 163.165 250.51L146.868 248.642C145.454 253.353 142.194 264.085 140.463 269.317C138.299 275.857 153.314 275.177 161.292 274.003Z" fill="#492E0D"/>
<path d="M159.667 296.516C167.091 295.424 164.213 277.843 161.845 269.189L142.889 267.015C141.244 272.496 137.451 284.979 135.438 291.065C132.921 298.673 150.386 297.882 159.667 296.516Z" fill="#492E0D"/>
<path d="M159.667 296.516C167.091 295.424 164.213 277.843 161.845 269.189L142.889 267.015C141.244 272.496 137.451 284.979 135.438 291.065C132.921 298.673 150.386 297.882 159.667 296.516Z" fill="#492E0D"/>
<path d="M159.667 296.516C167.091 295.424 164.213 277.843 161.845 269.189L142.889 267.015C141.244 272.496 137.451 284.979 135.438 291.065C132.921 298.673 150.386 297.882 159.667 296.516Z" fill="#492E0D"/>
<path d="M159.667 296.516C167.091 295.424 164.213 277.843 161.845 269.189L142.889 267.015C141.244 272.496 137.451 284.979 135.438 291.065C132.921 298.673 150.386 297.882 159.667 296.516Z" fill="#492E0D"/>
<path d="M159.27 318.921C167.144 317.057 162.416 298.439 159.068 289.363L138.502 288.791C137.245 294.832 134.332 308.594 132.736 315.319C130.74 323.726 149.428 321.251 159.27 318.921Z" fill="#492E0D"/>
<path d="M159.27 318.921C167.144 317.057 162.416 298.439 159.068 289.363L138.502 288.791C137.245 294.832 134.332 308.594 132.736 315.319C130.74 323.726 149.428 321.251 159.27 318.921Z" fill="#492E0D"/>
<path d="M159.27 318.921C167.144 317.057 162.416 298.439 159.068 289.363L138.502 288.791C137.245 294.832 134.332 308.594 132.736 315.319C130.74 323.726 149.428 321.251 159.27 318.921Z" fill="#492E0D"/>
<path d="M159.27 318.921C167.144 317.057 162.416 298.439 159.068 289.363L138.502 288.791C137.245 294.832 134.332 308.594 132.736 315.319C130.74 323.726 149.428 321.251 159.27 318.921Z" fill="#492E0D"/>
<path d="M161.002 345.666C169.777 342.99 163.087 322.265 158.646 312.237L135.336 313.07C134.348 319.995 132.043 335.776 130.72 343.501C129.068 353.156 150.034 349.011 161.002 345.666Z" fill="#492E0D"/>
<path d="M161.002 345.666C169.777 342.99 163.087 322.265 158.646 312.237L135.336 313.07C134.348 319.995 132.043 335.776 130.72 343.501C129.068 353.156 150.034 349.011 161.002 345.666Z" fill="#492E0D"/>
<path d="M161.002 345.666C169.777 342.99 163.087 322.265 158.646 312.237L135.336 313.07C134.348 319.995 132.043 335.776 130.72 343.501C129.068 353.156 150.034 349.011 161.002 345.666Z" fill="#492E0D"/>
<path d="M161.002 345.666C169.777 342.99 163.087 322.265 158.646 312.237L135.336 313.07C134.348 319.995 132.043 335.776 130.72 343.501C129.068 353.156 150.034 349.011 161.002 345.666Z" fill="#492E0D"/>
<path d="M161.53 372.897C170.685 370.105 163.705 348.479 159.071 338.015L134.747 338.885C133.717 346.111 131.311 362.578 129.932 370.638C128.207 380.713 150.085 376.387 161.53 372.897Z" fill="#492E0D"/>
<path d="M161.53 372.897C170.685 370.105 163.705 348.479 159.071 338.015L134.747 338.885C133.717 346.111 131.311 362.578 129.932 370.638C128.207 380.713 150.085 376.387 161.53 372.897Z" fill="#492E0D"/>
<path d="M161.53 372.897C170.685 370.105 163.705 348.479 159.071 338.015L134.747 338.885C133.717 346.111 131.311 362.578 129.932 370.638C128.207 380.713 150.085 376.387 161.53 372.897Z" fill="#492E0D"/>
<path d="M161.53 372.897C170.685 370.105 163.705 348.479 159.071 338.015L134.747 338.885C133.717 346.111 131.311 362.578 129.932 370.638C128.207 380.713 150.085 376.387 161.53 372.897Z" fill="#492E0D"/>
<path d="M163.289 404.097C172.98 401.142 165.592 378.252 160.686 367.176L134.941 368.097C133.85 375.745 131.304 393.175 129.843 401.706C128.018 412.37 151.175 407.791 163.289 404.097Z" fill="#492E0D"/>
<path d="M163.289 404.097C172.98 401.142 165.592 378.252 160.686 367.176L134.941 368.097C133.85 375.745 131.304 393.175 129.843 401.706C128.018 412.37 151.175 407.791 163.289 404.097Z" fill="#492E0D"/>
<path d="M163.289 404.097C172.98 401.142 165.592 378.252 160.686 367.176L134.941 368.097C133.85 375.745 131.304 393.175 129.843 401.706C128.018 412.37 151.175 407.791 163.289 404.097Z" fill="#492E0D"/>
<path d="M163.289 404.097C172.98 401.142 165.592 378.252 160.686 367.176L134.941 368.097C133.85 375.745 131.304 393.175 129.843 401.706C128.018 412.37 151.175 407.791 163.289 404.097Z" fill="#492E0D"/>
<path d="M162.491 437.474C173.707 435.325 168.174 408.784 164.006 395.782L135.042 393.724C132.901 402.165 127.956 421.394 125.295 430.78C121.969 442.512 148.471 440.16 162.491 437.474Z" fill="#492E0D"/>
<path d="M162.491 437.474C173.707 435.325 168.174 408.784 164.006 395.782L135.042 393.724C132.901 402.165 127.956 421.394 125.295 430.78C121.969 442.512 148.471 440.16 162.491 437.474Z" fill="#492E0D"/>
<path d="M162.491 437.474C173.707 435.325 168.174 408.784 164.006 395.782L135.042 393.724C132.901 402.165 127.956 421.394 125.295 430.78C121.969 442.512 148.471 440.16 162.491 437.474Z" fill="#492E0D"/>
<path d="M162.491 437.474C173.707 435.325 168.174 408.784 164.006 395.782L135.042 393.724C132.901 402.165 127.956 421.394 125.295 430.78C121.969 442.512 148.471 440.16 162.491 437.474Z" fill="#492E0D"/>
<path d="M182.694 226.505C181.704 226.505 174.307 213.857 170.733 207.533C152.723 203.684 129.902 187.654 182.694 154.329C235.485 121.004 282.228 154.191 299 174.951C282.833 159.773 254.045 159.003 241.672 160.515C242.002 161.175 242.084 162.44 242.084 162.99C225.257 160.68 216.651 164.502 214.451 166.702C211.811 171.981 214.451 173.301 216.101 173.301C230.288 172.641 246.483 182.924 252.807 188.149C251.817 187.819 251.02 188.836 250.745 189.386C271.862 203.904 280.44 220.181 282.09 226.505H280.028C286.297 243.002 282.64 255.1 280.028 259.087C279.038 246.549 268.617 232.142 263.531 226.505C264.19 227.825 263.256 230.629 262.706 231.867C262.706 229.227 245.384 213.445 236.722 205.883C237.382 208.193 236.997 210.695 236.722 211.657C216.926 196.81 208.677 195.022 207.027 195.985C208.017 196.315 208.814 199.147 209.089 200.522C206.78 200.192 205.927 201.484 205.79 202.171C220.308 212.4 225.037 236.128 225.587 246.714H223.937C226.906 273.77 215.826 295.382 209.914 302.805C215.193 283.668 213.214 265.686 211.564 259.087C209.914 258.757 208.402 262.524 207.852 264.449C208.182 255.87 201.116 240.803 197.541 234.341C197.816 236.816 197.954 241.683 196.304 241.353C194.654 241.023 187.368 225.818 183.931 218.256C183.931 221.006 183.683 226.505 182.694 226.505Z" fill="#214325"/>
<path d="M144.316 215.881C145.252 216.038 172.205 198.883 176.494 194.042C194.066 193.617 217.94 183.538 172.866 146.62C127.792 109.701 78.841 130.649 60 145.738C77.4646 135.328 104.776 139.254 116.248 142.519C115.842 143.031 115.581 144.1 115.502 144.57C131.734 145.274 139.315 149.915 141.076 152.147C142.808 157.084 140.124 157.793 138.565 157.53C125.255 154.706 108.47 160.924 101.742 164.386C102.725 164.261 103.331 165.259 103.512 165.773C81.4661 174.83 71.0131 187.389 68.5424 192.537L70.4907 192.865C62.1882 205.981 63.8988 216.914 65.7919 220.74C68.5353 210.172 80.4593 199.505 86.0784 195.493C85.2646 196.517 85.7434 199.065 86.0846 200.211C86.4652 197.953 105.108 187.21 114.382 182.12C113.425 183.991 113.428 186.193 113.549 187.06C134.396 177.511 124.306 184.808 125.726 185.894C124.743 186.019 123.582 188.315 123.124 189.447C125.353 189.533 125.972 190.774 126.003 191.384C110.811 197.822 102.921 217.37 100.874 226.339L102.433 226.601C95.7257 249.275 103.079 269.529 107.594 276.822C105.365 259.609 109.829 244.54 112.339 239.157C113.946 239.138 114.831 242.601 115.073 244.336C115.999 236.944 124.848 225.179 129.158 220.22C128.541 222.293 127.709 226.435 129.316 226.415C130.922 226.396 139.999 214.548 144.337 208.627C143.94 210.979 143.381 215.723 144.316 215.881Z" fill="#214325"/>
<path d="M1366.37 210.151C1359.66 209.709 1360.96 193.784 1362.45 185.877L1379.24 182.567C1381.11 187.348 1385.4 198.234 1387.64 203.53C1390.44 210.151 1374.77 210.702 1366.37 210.151Z" fill="#492E0D"/>
<path d="M1366.37 210.151C1359.66 209.709 1360.96 193.784 1362.45 185.877L1379.24 182.567C1381.11 187.348 1385.4 198.234 1387.64 203.53C1390.44 210.151 1374.77 210.702 1366.37 210.151Z" fill="#492E0D"/>
<path d="M1366.37 210.151C1359.66 209.709 1360.96 193.784 1362.45 185.877L1379.24 182.567C1381.11 187.348 1385.4 198.234 1387.64 203.53C1390.44 210.151 1374.77 210.702 1366.37 210.151Z" fill="#492E0D"/>
<path d="M1366.37 210.151C1359.66 209.709 1360.96 193.784 1362.45 185.877L1379.24 182.567C1381.11 187.348 1385.4 198.234 1387.64 203.53C1390.44 210.151 1374.77 210.702 1366.37 210.151Z" fill="#492E0D"/>
<path d="M1369.41 227.941C1362.75 226.961 1365.33 211.193 1367.45 203.431L1384.46 201.481C1385.93 206.397 1389.33 217.593 1391.14 223.052C1393.4 229.876 1377.73 229.166 1369.41 227.941Z" fill="#492E0D"/>
<path d="M1369.41 227.941C1362.75 226.961 1365.33 211.193 1367.45 203.431L1384.46 201.481C1385.93 206.397 1389.33 217.593 1391.14 223.052C1393.4 229.876 1377.73 229.166 1369.41 227.941Z" fill="#492E0D"/>
<path d="M1369.41 227.941C1362.75 226.961 1365.33 211.193 1367.45 203.431L1384.46 201.481C1385.93 206.397 1389.33 217.593 1391.14 223.052C1393.4 229.876 1377.73 229.166 1369.41 227.941Z" fill="#492E0D"/>
<path d="M1369.41 227.941C1362.75 226.961 1365.33 211.193 1367.45 203.431L1384.46 201.481C1385.93 206.397 1389.33 217.593 1391.14 223.052C1393.4 229.876 1377.73 229.166 1369.41 227.941Z" fill="#492E0D"/>
<path d="M1372.13 248.797C1364.66 247.699 1367.55 230.017 1369.94 221.314L1389 219.127C1390.66 224.639 1394.47 237.194 1396.49 243.315C1399.03 250.967 1381.46 250.171 1372.13 248.797Z" fill="#492E0D"/>
<path d="M1372.13 248.797C1364.66 247.699 1367.55 230.017 1369.94 221.314L1389 219.127C1390.66 224.639 1394.47 237.194 1396.49 243.315C1399.03 250.967 1381.46 250.171 1372.13 248.797Z" fill="#492E0D"/>
<path d="M1372.13 248.797C1364.66 247.699 1367.55 230.017 1369.94 221.314L1389 219.127C1390.66 224.639 1394.47 237.194 1396.49 243.315C1399.03 250.967 1381.46 250.171 1372.13 248.797Z" fill="#492E0D"/>
<path d="M1372.13 248.797C1364.66 247.699 1367.55 230.017 1369.94 221.314L1389 219.127C1390.66 224.639 1394.47 237.194 1396.49 243.315C1399.03 250.967 1381.46 250.171 1372.13 248.797Z" fill="#492E0D"/>
<path d="M1374.55 271.38C1366.6 270.21 1369.69 251.381 1372.22 242.113L1392.52 239.785C1394.29 245.655 1398.35 259.024 1400.5 265.542C1403.2 273.69 1384.49 272.842 1374.55 271.38Z" fill="#492E0D"/>
<path d="M1374.55 271.38C1366.6 270.21 1369.69 251.381 1372.22 242.113L1392.52 239.785C1394.29 245.655 1398.35 259.024 1400.5 265.542C1403.2 273.69 1384.49 272.842 1374.55 271.38Z" fill="#492E0D"/>
<path d="M1374.55 271.38C1366.6 270.21 1369.69 251.381 1372.22 242.113L1392.52 239.785C1394.29 245.655 1398.35 259.024 1400.5 265.542C1403.2 273.69 1384.49 272.842 1374.55 271.38Z" fill="#492E0D"/>
<path d="M1374.55 271.38C1366.6 270.21 1369.69 251.381 1372.22 242.113L1392.52 239.785C1394.29 245.655 1398.35 259.024 1400.5 265.542C1403.2 273.69 1384.49 272.842 1374.55 271.38Z" fill="#492E0D"/>
<path d="M1376.58 299.426C1367.33 298.065 1370.92 276.163 1373.87 265.382L1397.48 262.674C1399.53 269.502 1404.26 285.053 1406.76 292.636C1409.9 302.114 1388.14 301.128 1376.58 299.426Z" fill="#492E0D"/>
<path d="M1376.58 299.426C1367.33 298.065 1370.92 276.163 1373.87 265.382L1397.48 262.674C1399.53 269.502 1404.26 285.053 1406.76 292.636C1409.9 302.114 1388.14 301.128 1376.58 299.426Z" fill="#492E0D"/>
<path d="M1376.58 299.426C1367.33 298.065 1370.92 276.163 1373.87 265.382L1397.48 262.674C1399.53 269.502 1404.26 285.053 1406.76 292.636C1409.9 302.114 1388.14 301.128 1376.58 299.426Z" fill="#492E0D"/>
<path d="M1376.58 299.426C1367.33 298.065 1370.92 276.163 1373.87 265.382L1397.48 262.674C1399.53 269.502 1404.26 285.053 1406.76 292.636C1409.9 302.114 1388.14 301.128 1376.58 299.426Z" fill="#492E0D"/>
<path d="M1377.07 327.338C1367.26 325.015 1373.15 301.822 1377.33 290.515L1402.95 289.803C1404.51 297.328 1408.14 314.473 1410.13 322.851C1412.62 333.324 1389.33 330.241 1377.07 327.338Z" fill="#492E0D"/>
<path d="M1377.07 327.338C1367.26 325.015 1373.15 301.822 1377.33 290.515L1402.95 289.803C1404.51 297.328 1408.14 314.473 1410.13 322.851C1412.62 333.324 1389.33 330.241 1377.07 327.338Z" fill="#492E0D"/>
<path d="M1377.07 327.338C1367.26 325.015 1373.15 301.822 1377.33 290.515L1402.95 289.803C1404.51 297.328 1408.14 314.473 1410.13 322.851C1412.62 333.324 1389.33 330.241 1377.07 327.338Z" fill="#492E0D"/>
<path d="M1377.07 327.338C1367.26 325.015 1373.15 301.822 1377.33 290.515L1402.95 289.803C1404.51 297.328 1408.14 314.473 1410.13 322.851C1412.62 333.324 1389.33 330.241 1377.07 327.338Z" fill="#492E0D"/>
<path d="M1374.92 360.656C1363.98 357.323 1372.32 331.504 1377.85 319.011L1406.89 320.05C1408.12 328.677 1410.99 348.336 1412.64 357.959C1414.7 369.988 1388.58 364.823 1374.92 360.656Z" fill="#492E0D"/>
<path d="M1374.92 360.656C1363.98 357.323 1372.32 331.504 1377.85 319.011L1406.89 320.05C1408.12 328.677 1410.99 348.336 1412.64 357.959C1414.7 369.988 1388.58 364.823 1374.92 360.656Z" fill="#492E0D"/>
<path d="M1374.92 360.656C1363.98 357.323 1372.32 331.504 1377.85 319.011L1406.89 320.05C1408.12 328.677 1410.99 348.336 1412.64 357.959C1414.7 369.988 1388.58 364.823 1374.92 360.656Z" fill="#492E0D"/>
<path d="M1374.92 360.656C1363.98 357.323 1372.32 331.504 1377.85 319.011L1406.89 320.05C1408.12 328.677 1410.99 348.336 1412.64 357.959C1414.7 369.988 1388.58 364.823 1374.92 360.656Z" fill="#492E0D"/>
<path d="M1374.26 394.581C1362.85 391.102 1371.55 364.161 1377.32 351.125L1407.62 352.209C1408.91 361.211 1411.9 381.725 1413.62 391.766C1415.77 404.317 1388.52 398.929 1374.26 394.581Z" fill="#492E0D"/>
<path d="M1374.26 394.581C1362.85 391.102 1371.55 364.161 1377.32 351.125L1407.62 352.209C1408.91 361.211 1411.9 381.725 1413.62 391.766C1415.77 404.317 1388.52 398.929 1374.26 394.581Z" fill="#492E0D"/>
<path d="M1374.26 394.581C1362.85 391.102 1371.55 364.161 1377.32 351.125L1407.62 352.209C1408.91 361.211 1411.9 381.725 1413.62 391.766C1415.77 404.317 1388.52 398.929 1374.26 394.581Z" fill="#492E0D"/>
<path d="M1374.26 394.581C1362.85 391.102 1371.55 364.161 1377.32 351.125L1407.62 352.209C1408.91 361.211 1411.9 381.725 1413.62 391.766C1415.77 404.317 1388.52 398.929 1374.26 394.581Z" fill="#492E0D"/>
<path d="M1372.07 433.449C1359.99 429.767 1369.2 401.251 1375.31 387.454L1407.38 388.601C1408.74 398.129 1411.91 419.842 1413.73 430.47C1416.01 443.755 1387.16 438.052 1372.07 433.449Z" fill="#492E0D"/>
<path d="M1372.07 433.449C1359.99 429.767 1369.2 401.251 1375.31 387.454L1407.38 388.601C1408.74 398.129 1411.91 419.842 1413.73 430.47C1416.01 443.755 1387.16 438.052 1372.07 433.449Z" fill="#492E0D"/>
<path d="M1372.07 433.449C1359.99 429.767 1369.2 401.251 1375.31 387.454L1407.38 388.601C1408.74 398.129 1411.91 419.842 1413.73 430.47C1416.01 443.755 1387.16 438.052 1372.07 433.449Z" fill="#492E0D"/>
<path d="M1372.07 433.449C1359.99 429.767 1369.2 401.251 1375.31 387.454L1407.38 388.601C1408.74 398.129 1411.91 419.842 1413.73 430.47C1416.01 443.755 1387.16 438.052 1372.07 433.449Z" fill="#492E0D"/>
<path d="M1373.06 475.029C1359.09 472.352 1365.98 439.288 1371.17 423.091L1407.26 420.527C1409.92 431.043 1416.08 454.997 1419.4 466.69C1423.54 481.306 1390.53 478.376 1373.06 475.029Z" fill="#492E0D"/>
<path d="M1373.06 475.029C1359.09 472.352 1365.98 439.288 1371.17 423.091L1407.26 420.527C1409.92 431.043 1416.08 454.997 1419.4 466.69C1423.54 481.306 1390.53 478.376 1373.06 475.029Z" fill="#492E0D"/>
<path d="M1373.06 475.029C1359.09 472.352 1365.98 439.288 1371.17 423.091L1407.26 420.527C1409.92 431.043 1416.08 454.997 1419.4 466.69C1423.54 481.306 1390.53 478.376 1373.06 475.029Z" fill="#492E0D"/>
<path d="M1373.06 475.029C1359.09 472.352 1365.98 439.288 1371.17 423.091L1407.26 420.527C1409.92 431.043 1416.08 454.997 1419.4 466.69C1423.54 481.306 1390.53 478.376 1373.06 475.029Z" fill="#492E0D"/>
<path d="M1347.89 212.208C1349.13 212.208 1358.34 196.451 1362.79 188.573C1385.23 183.777 1413.66 163.807 1347.89 122.292C1282.13 80.7762 1223.89 122.12 1203 147.982C1223.14 129.074 1259 128.115 1274.42 129.999C1274.01 130.821 1273.91 132.396 1273.91 133.082C1294.87 130.204 1305.59 134.965 1308.33 137.706C1311.62 144.283 1308.33 145.927 1306.27 145.927C1288.6 145.105 1268.42 157.915 1260.55 164.424C1261.78 164.013 1262.77 165.28 1263.12 165.965C1236.81 184.051 1226.12 204.329 1224.07 212.208H1226.63C1218.83 232.76 1223.38 247.831 1226.63 252.798C1227.87 237.178 1240.85 219.23 1247.19 212.208C1246.37 213.852 1247.53 217.346 1248.21 218.887C1248.21 215.599 1269.79 195.937 1280.58 186.517C1279.76 189.395 1280.24 192.512 1280.58 193.711C1305.25 175.214 1315.52 172.987 1317.58 174.186C1316.35 174.597 1315.35 178.125 1315.01 179.838C1317.89 179.427 1318.95 181.037 1319.12 181.893C1301.03 194.635 1295.14 224.196 1294.46 237.384H1296.51C1292.81 271.09 1306.62 298.013 1313.98 307.262C1307.41 283.421 1309.87 261.019 1311.93 252.798C1313.98 252.387 1315.87 257.08 1316.55 259.478C1316.14 248.79 1324.94 230.019 1329.4 221.97C1329.05 225.053 1328.88 231.116 1330.94 230.705C1332.99 230.294 1342.07 211.351 1346.35 201.931C1346.35 205.357 1346.66 212.208 1347.89 212.208Z" fill="#214325"/>
<path d="M1395.7 198.972C1394.54 199.168 1360.96 177.797 1355.62 171.766C1333.73 171.236 1303.98 158.68 1360.14 112.688C1416.29 66.6954 1477.27 92.7918 1500.74 111.589C1478.99 98.6206 1444.96 103.512 1430.67 107.579C1431.18 108.217 1431.5 109.548 1431.6 110.135C1411.38 111.012 1401.93 116.793 1399.74 119.574C1397.58 125.724 1400.93 126.607 1402.87 126.279C1419.45 122.761 1440.36 130.508 1448.74 134.821C1447.52 134.665 1446.76 135.908 1446.54 136.549C1474 147.832 1487.02 163.478 1490.1 169.891L1487.67 170.3C1498.02 186.639 1495.89 200.259 1493.53 205.026C1490.11 191.86 1475.25 178.572 1468.25 173.573C1469.27 174.849 1468.67 178.024 1468.25 179.451C1467.77 176.638 1444.55 163.254 1432.99 156.914C1434.19 159.245 1434.18 161.988 1434.03 163.068C1408.06 151.171 1420.63 160.262 1418.86 161.615C1420.09 161.771 1421.53 164.631 1422.1 166.041C1419.33 166.148 1418.56 167.694 1418.52 168.454C1437.44 176.475 1447.27 200.827 1449.82 212L1447.88 212.328C1456.24 240.574 1447.08 265.807 1441.45 274.892C1444.23 253.448 1438.67 234.676 1435.54 227.97C1433.54 227.945 1432.43 232.26 1432.13 234.421C1430.98 225.212 1419.96 210.555 1414.59 204.378C1415.36 206.961 1416.39 212.12 1414.39 212.096C1412.39 212.072 1401.08 197.312 1395.68 189.935C1396.17 192.865 1396.87 198.775 1395.7 198.972Z" fill="#214325"/>
<defs>
<filter id="filter0_f_6_194" x="577.992" y="-6.04697" width="679.91" height="467.082" filterUnits="userSpaceOnUse" color-interpolation-filters="sRGB">
<feFlood flood-opacity="0" result="BackgroundImageFix"/>
<feBlend mode="normal" in="SourceGraphic" in2="BackgroundImageFix" result="shape"/>
<feGaussianBlur stdDeviation="11" result="effect1_foregroundBlur_6_194"/>
</filter>
<filter id="filter1_f_6_194" x="577.992" y="-6.04697" width="679.91" height="467.082" filterUnits="userSpaceOnUse" color-interpolation-filters="sRGB">
<feFlood flood-opacity="0" result="BackgroundImageFix"/>
<feBlend mode="normal" in="SourceGraphic" in2="BackgroundImageFix" result="shape"/>
<feGaussianBlur stdDeviation="11" result="effect1_foregroundBlur_6_194"/>
</filter>
<filter id="filter2_f_6_194" x="30.5621" y="52.4283" width="734.844" height="427.448" filterUnits="userSpaceOnUse" color-interpolation-filters="sRGB">
<feFlood flood-opacity="0" result="BackgroundImageFix"/>
<feBlend mode="normal" in="SourceGraphic" in2="BackgroundImageFix" result="shape"/>
<feGaussianBlur stdDeviation="18.5" result="effect1_foregroundBlur_6_194"/>
</filter>
<filter id="filter3_f_6_194" x="30.5623" y="52.4284" width="734.844" height="427.448" filterUnits="userSpaceOnUse" color-interpolation-filters="sRGB">
<feFlood flood-opacity="0" result="BackgroundImageFix"/>
<feBlend mode="normal" in="SourceGraphic" in2="BackgroundImageFix" result="shape"/>
<feGaussianBlur stdDeviation="18.5" result="effect1_foregroundBlur_6_194"/>
</filter>
<linearGradient id="paint0_linear_6_194" x1="1025.88" y1="280.333" x2="1492.85" y2="452.485" gradientUnits="userSpaceOnUse">
<stop stop-color="#F1A360"/>
<stop offset="0.9999" stop-color="#FCF8F4"/>
<stop offset="1" stop-color="#FFCEA4"/>
</linearGradient>
<linearGradient id="paint1_linear_6_194" x1="1077.44" y1="239.271" x2="929.451" y2="299.19" gradientUnits="userSpaceOnUse">
<stop stop-color="#EE964B"/>
<stop offset="1" stop-color="#C57E42"/>
</linearGradient>
<linearGradient id="paint2_linear_6_194" x1="1025.88" y1="280.333" x2="1492.85" y2="452.485" gradientUnits="userSpaceOnUse">
<stop stop-color="#F1A360"/>
<stop offset="0.9999" stop-color="#FCF8F4"/>
<stop offset="1" stop-color="#FFCEA4"/>
</linearGradient>
<linearGradient id="paint3_linear_6_194" x1="1077.44" y1="239.271" x2="929.451" y2="299.19" gradientUnits="userSpaceOnUse">
<stop stop-color="#EE964B"/>
<stop offset="1" stop-color="#C57E42"/>
</linearGradient>
<linearGradient id="paint4_linear_6_194" x1="669.697" y1="213.328" x2="1333.55" y2="495.676" gradientUnits="userSpaceOnUse">
<stop stop-color="#F1A360"/>
<stop offset="0.9999" stop-color="#FCF8F4"/>
<stop offset="1" stop-color="#FFCEA4"/>
</linearGradient>
<linearGradient id="paint5_linear_6_194" x1="669.697" y1="213.328" x2="1333.55" y2="495.676" gradientUnits="userSpaceOnUse">
<stop stop-color="#F1A360"/>
<stop offset="0.9999" stop-color="#FCF8F4"/>
<stop offset="1" stop-color="#FFCEA4"/>
</linearGradient>
<linearGradient id="paint6_linear_6_194" x1="714.68" y1="152.561" x2="510.049" y2="235.522" gradientUnits="userSpaceOnUse">
<stop stop-color="#EE964B"/>
<stop offset="1" stop-color="#C57E42"/>
</linearGradient>
<linearGradient id="paint7_linear_6_194" x1="714.68" y1="152.561" x2="510.049" y2="235.522" gradientUnits="userSpaceOnUse">
<stop stop-color="#EE964B"/>
<stop offset="1" stop-color="#C57E42"/>
</linearGradient>
<linearGradient id="paint8_linear_6_194" x1="244.859" y1="226.491" x2="734.574" y2="442.767" gradientUnits="userSpaceOnUse">
<stop stop-color="#F1A360"/>
<stop offset="0.9999" stop-color="#FFDABA"/>
<stop offset="1" stop-color="#FBF3ED"/>
</linearGradient>
<linearGradient id="paint9_linear_6_194" x1="293.021" y1="235.68" x2="88.3901" y2="318.642" gradientUnits="userSpaceOnUse">
<stop stop-color="#EE964B"/>
<stop offset="1" stop-color="#C57E42"/>
</linearGradient>
</defs>
</svg>
