<svg xmlns="http://www.w3.org/2000/svg" width="1200" height="630" viewBox="0 0 1200 630" role="img" aria-labelledby="title desc">
  <title id="title">Mostafa Hussein portfolio</title>
  <desc id="desc">Mostafa Hussein and مصطفى حسين with a centered M logo on a northern-night background.</desc>
  <defs>
    <linearGradient id="bg" x1="0" y1="0" x2="1200" y2="630" gradientUnits="userSpaceOnUse">
      <stop stop-color="#07131f" />
      <stop offset="0.58" stop-color="#102b36" />
      <stop offset="1" stop-color="#0d6677" />
    </linearGradient>
    <linearGradient id="aurora" x1="140" y1="100" x2="1000" y2="500" gradientUnits="userSpaceOnUse">
      <stop stop-color="#4fc6b4" stop-opacity=".7" />
      <stop offset="1" stop-color="#e95b5b" stop-opacity=".2" />
    </linearGradient>
  </defs>
  <rect width="1200" height="630" fill="url(#bg)" />
  <path d="M0 450C210 300 360 570 570 390s360 130 630-70v310H0Z" fill="#061019" />
  <path d="M-40 190C220 20 440 260 690 90s420 10 600-80" fill="none" stroke="url(#aurora)" stroke-width="90" stroke-linecap="round" opacity=".5" />
  <g fill="#f5f7f8">
    <circle cx="102" cy="92" r="5" /><circle cx="350" cy="118" r="8" /><circle cx="1005" cy="98" r="6" />
  </g>
  <g transform="translate(520 210)">
    <rect width="160" height="160" rx="42" fill="#07131f" fill-opacity=".82" stroke="#4fc6b4" stroke-opacity=".8" stroke-width="3" />
    <text x="80" y="112" fill="#f5f7f8" font-family="Arial, sans-serif" font-size="104" font-weight="900" text-anchor="middle">M</text>
  </g>
  <text x="455" y="292" fill="#f5f7f8" font-family="Arial, sans-serif" font-size="72" font-weight="900" text-anchor="end">MOSTAFA</text>
  <text x="455" y="370" fill="#f5f7f8" font-family="Arial, sans-serif" font-size="72" font-weight="900" text-anchor="end">HUSSEIN</text>
  <text x="740" y="326" fill="#4fc6b4" font-family="Arial, sans-serif" font-size="82" font-weight="800">مصطفى حسين</text>
</svg>
